<mxfile host="app.diagrams.net" modified="2023-04-12T12:18:40.506Z" agent="Mozilla/5.0 (Windows NT 10.0; Win64; x64) AppleWebKit/537.36 (KHTML, like Gecko) Chrome/111.0.0.0 Safari/537.36" version="21.1.7" etag="7WrQrbHVJ_KSYtwFReLI" type="github">
  <diagram name="PÃ¡gina-1" id="5c24kU5NBxkWLFhOU6Yt">
    <mxGraphModel>
      <root>
        <mxCell id="0" />
        <mxCell id="1" parent="0" />
      </root>
    </mxGraphModel>
  </diagram>
</mxfile>
